<svg width="995" height="503" viewBox="0 0 995 503" fill="none" xmlns="http://www.w3.org/2000/svg">
<rect x="496.656" y="165.5" width="365" height="70" rx="35" fill="url(#paint0_linear_601_35)" fill-opacity="0.3"/>
<rect x="496.656" y="268.5" width="306" height="70" rx="35" fill="url(#paint1_linear_601_35)" fill-opacity="0.3"/>
<rect x="152.656" y="97.5" width="300" height="300" rx="50" fill="url(#paint2_linear_601_35)"/>
<path d="M119.141 498.828C108.724 498.828 99.349 497.135 91.0156 493.75C82.9427 490.365 76.1719 485.938 70.7031 480.469C65.2344 475 60.5469 467.578 56.6406 458.203C52.7344 448.828 49.6094 439.453 47.2656 430.078C45.1823 420.703 43.4896 408.984 42.1875 394.922C40.8854 381.12 40.1042 368.359 39.8438 356.641C39.5833 344.922 39.4531 330.599 39.4531 313.672C39.4531 306.38 37.3698 299.609 33.2031 293.359C29.0365 287.109 24.4792 282.161 19.5312 278.516C14.8438 274.609 10.4167 270.052 6.25 264.844C2.08333 259.635 0 254.427 0 249.219C0 244.271 2.08333 239.193 6.25 233.984C10.4167 228.776 14.8438 224.349 19.5312 220.703C24.4792 216.797 29.0365 211.719 33.2031 205.469C37.3698 199.219 39.4531 192.448 39.4531 185.156C39.4531 168.229 39.5833 153.906 39.8438 142.188C40.1042 130.469 40.8854 117.708 42.1875 103.906C43.4896 89.8438 45.1823 78.125 47.2656 68.75C49.6094 59.375 52.7344 50 56.6406 40.625C60.5469 31.25 65.2344 23.8281 70.7031 18.3594C76.1719 12.8906 82.9427 8.46354 91.0156 5.07812C99.349 1.69271 108.724 0 119.141 0V35.5469C101.693 35.5469 90.1042 47.7865 84.375 72.2656C78.6458 96.4844 75.7812 135.938 75.7812 190.625C75.7812 200 73.9583 208.594 70.3125 216.406C66.9271 224.219 63.0208 230.078 58.5938 233.984C54.4271 237.63 50.5208 240.885 46.875 243.75C43.4896 246.615 41.7969 248.438 41.7969 249.219C41.7969 250 43.4896 251.823 46.875 254.688C50.5208 257.552 54.4271 260.938 58.5938 264.844C63.0208 268.49 66.9271 274.349 70.3125 282.422C73.9583 290.234 75.7812 298.958 75.7812 308.594C75.7812 363.021 78.6458 402.344 84.375 426.562C90.1042 451.042 101.693 463.281 119.141 463.281V498.828Z" fill="#6AB58A"/>
<path d="M875.172 4.17186C885.589 4.17186 894.964 5.86457 903.297 9.24999C911.37 12.6354 918.141 17.0625 923.609 22.5312C929.078 28 933.766 35.4219 937.672 44.7969C941.578 54.1719 944.703 63.5469 947.047 72.9219C949.13 82.2969 950.823 94.0156 952.125 108.078C953.427 121.88 954.208 134.641 954.469 146.359C954.729 158.078 954.859 172.401 954.859 189.328C954.859 196.62 956.943 203.391 961.109 209.641C965.276 215.891 969.833 220.839 974.781 224.484C979.469 228.391 983.896 232.948 988.062 238.156C992.229 243.365 994.313 248.573 994.312 253.781C994.312 258.729 992.229 263.807 988.062 269.016C983.896 274.224 979.469 278.651 974.781 282.297C969.833 286.203 965.276 291.281 961.109 297.531C956.943 303.781 954.859 310.552 954.859 317.844C954.859 334.771 954.729 349.094 954.469 360.812C954.208 372.531 953.427 385.292 952.125 399.094C950.823 413.156 949.13 424.875 947.047 434.25C944.703 443.625 941.578 453 937.672 462.375C933.766 471.75 929.078 479.172 923.609 484.641C918.141 490.109 911.37 494.536 903.297 497.922C894.964 501.307 885.589 503 875.172 503V467.453C892.62 467.453 904.208 455.214 909.938 430.734C915.667 406.516 918.531 367.062 918.531 312.375C918.531 303 920.354 294.406 924 286.594C927.385 278.781 931.292 272.922 935.719 269.016C939.885 265.37 943.792 262.115 947.438 259.25C950.823 256.385 952.516 254.562 952.516 253.781C952.516 253 950.823 251.177 947.438 248.312C943.792 245.448 939.885 242.063 935.719 238.156C931.292 234.51 927.385 228.651 924 220.578C920.354 212.766 918.531 204.042 918.531 194.406C918.531 139.979 915.667 100.656 909.938 76.4375C904.208 51.9583 892.62 39.7187 875.172 39.7187V4.17186Z" fill="#6AB58A"/>
<defs>
<linearGradient id="paint0_linear_601_35" x1="827.023" y1="245.229" x2="818.197" y2="131.603" gradientUnits="userSpaceOnUse">
<stop stop-color="#455264"/>
<stop offset="0.333333" stop-color="#455264"/>
<stop offset="1" stop-color="#798392"/>
</linearGradient>
<linearGradient id="paint1_linear_601_35" x1="773.621" y1="348.229" x2="763.12" y2="234.891" gradientUnits="userSpaceOnUse">
<stop stop-color="#455264"/>
<stop offset="0.333333" stop-color="#455264"/>
<stop offset="1" stop-color="#798392"/>
</linearGradient>
<linearGradient id="paint2_linear_601_35" x1="424.191" y1="439.198" x2="253.731" y2="18.3302" gradientUnits="userSpaceOnUse">
<stop stop-color="#455264"/>
<stop offset="0.333333" stop-color="#455264"/>
<stop offset="1" stop-color="#798392"/>
</linearGradient>
</defs>
</svg>
